<svg xmlns="http://www.w3.org/2000/svg" width="512" height="512" viewBox="0 0 512 512" version="1.1"><path d="" stroke="none" fill="#080404" fill-rule="evenodd"/><path d="M 244.500 1.346 C 232.711 5.250, 223.792 12.996, 218.693 23.759 L 215.500 30.500 215.233 111.923 L 214.965 193.346 189.733 168.309 C 164.430 143.203, 160.927 140.400, 151.119 137.423 C 142.118 134.692, 129.551 136.139, 119.989 141.009 C 114.891 143.605, 106.320 152.420, 103.636 157.827 C 97.881 169.422, 97.468 182.509, 102.494 194 C 105.165 200.108, 109.081 204.257, 167.418 262.791 C 201.563 297.050, 231.572 326.418, 234.104 328.051 C 246.782 336.230, 265.218 336.230, 277.896 328.051 C 280.428 326.418, 310.437 297.050, 344.582 262.791 C 402.919 204.257, 406.835 200.108, 409.506 194 C 416.457 178.107, 413.031 160.032, 400.783 147.976 C 387.564 134.963, 369.044 132.340, 351.881 141.048 C 349.139 142.440, 338.062 152.636, 322.267 168.309 L 297.035 193.346 296.767 111.923 L 296.500 30.500 293.307 23.759 C 289.155 14.996, 281.959 7.812, 273.241 3.730 C 267.499 1.041, 265.166 0.533, 257.500 0.297 C 251.970 0.128, 246.958 0.532, 244.500 1.346 M 29.500 285.356 C 15.567 289.934, 5.627 300.033, 1.423 313.881 C -0.652 320.719, -0.652 475.281, 1.423 482.119 C 4.985 493.853, 13.002 503.208, 23.938 508.391 L 30.500 511.500 256 511.500 L 481.500 511.500 488.062 508.391 C 498.796 503.304, 508.303 492.210, 510.454 482.261 C 510.839 480.480, 511.569 478.766, 512.077 478.452 C 512.629 478.111, 513 445.302, 513 396.882 C 513 347.920, 512.637 316.107, 512.081 316.450 C 511.576 316.762, 510.846 315.551, 510.458 313.759 C 508.303 303.789, 498.805 292.700, 488.062 287.609 C 482.015 284.744, 480.675 284.500, 471 284.500 C 461.330 284.500, 459.983 284.745, 453.953 287.603 C 445.883 291.427, 440.691 295.888, 436.267 302.800 C 429.506 313.363, 429.674 311.678, 429.256 373.250 L 428.878 429 256 429 L 83.122 429 82.744 373.250 C 82.326 311.678, 82.494 313.363, 75.733 302.800 C 71.308 295.888, 66.117 291.426, 58.047 287.603 C 52.436 284.944, 50.213 284.468, 42.500 284.271 C 37.131 284.135, 31.886 284.572, 29.500 285.356 M 0.477 398 C 0.477 442.825, 0.600 461.163, 0.750 438.750 C 0.900 416.338, 0.900 379.663, 0.750 357.250 C 0.600 334.838, 0.477 353.175, 0.477 398" stroke="none" fill="#040404" fill-rule="evenodd"/></svg>