<svg xmlns="http://www.w3.org/2000/svg" width="100" height="115" viewBox="0 0 880 878" version="1.1"><path d="M 410.500 162.623 C 367.730 166.986, 324.558 182.634, 287.500 207.204 C 272.553 217.114, 252.161 233.752, 243.659 242.974 C 202.485 287.638, 178.710 336.774, 169.857 395.500 C 168.075 407.320, 168.035 452.188, 169.795 464.500 C 173.571 490.905, 183.692 521.426, 197.153 547 C 205.488 562.836, 222.007 587.314, 233.257 600.500 C 264.926 637.619, 308.964 666.867, 356.500 682.352 C 376.654 688.918, 414.321 695, 434.828 695 C 445.755 695, 473.274 692.356, 482 690.468 C 499.422 686.699, 506.292 684.905, 515.500 681.723 C 566.523 664.089, 613.567 630.511, 642.760 590.890 C 671.156 552.350, 686.332 519.403, 694.988 477.500 C 703.335 437.092, 701.377 397.084, 688.985 354.829 C 678.578 319.345, 667.069 297.371, 640.162 261.616 C 617.853 231.970, 582.035 203.833, 545.500 187.253 C 505.906 169.284, 478.672 163.045, 437.500 162.512 C 424.850 162.349, 412.700 162.398, 410.500 162.623 M 398.118 179.033 C 373.521 182.915, 349.696 190.474, 324.500 202.390 C 284.315 221.396, 241.846 261.318, 217.472 303 C 192.961 344.914, 181.446 394.470, 184.949 442.958 C 188.328 489.715, 198.706 522.966, 221.144 558.916 C 233.616 578.898, 253.824 603.001, 267.886 614.667 C 303.479 644.196, 333.953 660.507, 373.500 671.195 C 392.255 676.264, 399.730 677.542, 419.087 678.989 C 460.253 682.067, 498.277 674.940, 536.730 656.938 C 557.127 647.390, 579.936 632.275, 600.138 614.921 C 615.815 601.455, 623.438 592.630, 640.239 568.500 C 657.412 543.835, 669.187 516.373, 677.327 482 C 681.975 462.374, 682.486 456.953, 682.464 427.500 C 682.445 402.771, 682.175 398, 680.150 386.657 C 674.190 353.267, 660.851 317.315, 647.284 298.076 C 647.120 297.842, 644.609 300.205, 641.704 303.326 C 636.598 308.812, 636.252 309, 631.254 309 C 626.625 309, 625.662 308.598, 622.042 305.155 C 618.565 301.847, 618 300.720, 618 297.089 C 618 289.804, 621.720 284.918, 629.144 282.452 C 631.815 281.565, 634 280.245, 634 279.519 C 634 277.403, 625.653 266.883, 615.512 256.218 C 593.193 232.745, 569.116 215.512, 537.667 200.501 C 515.237 189.795, 498.682 184.441, 474 179.913 C 456.818 176.760, 415.552 176.282, 398.118 179.033 M 417.500 209.626 C 390.333 213.720, 374.460 217.810, 357 225.214 C 345.785 229.970, 329.224 238.102, 325.286 240.786 C 323.754 241.830, 319.800 244.396, 316.500 246.488 C 295.706 259.670, 271.586 283.842, 256.616 306.500 C 240.938 330.229, 232.032 349.453, 225.097 374.534 C 219.427 395.036, 218.554 402.242, 218.554 428.500 C 218.555 449.251, 218.862 454.125, 220.823 464.500 C 223.231 477.239, 228.417 493.809, 234.542 508.330 C 240.667 522.850, 258.509 550.907, 261.660 550.975 C 263.949 551.024, 272.773 543.081, 279.004 535.362 C 287.432 524.922, 293.653 515.118, 300.409 501.627 C 306.280 489.903, 320 457.938, 320 455.983 C 320 455.352, 321.124 451.579, 322.498 447.598 C 324.881 440.695, 331 412.189, 331 407.993 C 331 404.664, 327.156 405.579, 314.163 412 C 307.486 415.300, 300.878 418, 299.479 418 C 289.823 418, 283.244 408.237, 286 397.999 C 287.515 392.374, 296.148 383.258, 303.789 379.216 C 309.690 376.095, 319.741 374, 328.819 374 C 331.574 374, 334.218 373.442, 334.803 372.738 C 335.379 372.043, 337.057 363.606, 338.531 353.988 C 342.641 327.177, 351.320 303.158, 362.673 287.175 C 384.379 256.618, 419.637 239.277, 455.925 241.312 C 478.733 242.590, 497.538 251.123, 515.780 268.470 C 529.640 281.650, 537.999 294.420, 543.619 311 C 546.355 319.073, 546.498 320.353, 546.465 336.500 C 546.433 352.284, 546.237 354.072, 543.728 361.500 C 537.267 380.622, 522.592 398.924, 507.500 406.681 C 491.552 414.878, 481.836 416.645, 465.181 414.374 C 450.633 412.390, 440.814 407.539, 430.015 397 C 416.390 383.701, 410.188 368.105, 413.034 354.295 C 414.583 346.778, 416.304 343.447, 421.326 338.240 C 430.949 328.265, 449.142 327.067, 458.339 335.803 C 462.468 339.725, 464 343.256, 464 348.850 C 464 352.849, 463.328 354.798, 460.500 359 C 458.575 361.861, 457 364.972, 457 365.913 C 457 366.855, 458.365 368.934, 460.034 370.532 C 462.662 373.051, 463.990 373.491, 469.990 373.830 C 475.631 374.148, 477.760 373.810, 481.492 372.004 C 497.099 364.449, 506.011 346.627, 503.205 328.582 C 500.469 310.979, 489.649 296.955, 472.052 288.204 C 464.653 284.524, 464.521 284.500, 452.052 284.500 L 439.500 284.500 430.592 288.759 C 423.340 292.226, 420.272 294.457, 414.087 300.759 C 396.475 318.704, 390.975 334.303, 381.564 393 C 376.626 423.799, 372.361 444.744, 368.777 455.798 C 367.119 460.912, 365.928 465.253, 366.131 465.445 C 366.334 465.638, 369.200 465.355, 372.500 464.817 C 384.527 462.856, 395.876 466.066, 421 478.536 C 461.112 498.444, 488.546 504.755, 511.010 499.240 C 529.942 494.593, 539.587 489.127, 548.919 477.757 C 556.545 468.466, 560.729 466, 568.871 466 C 581.960 466, 590.463 475.756, 588.542 488.569 C 587.007 498.808, 564.421 521.694, 547.313 530.346 C 522.232 543.032, 493.566 545.898, 464.791 538.599 C 451.870 535.321, 444.722 532.390, 421.656 520.909 C 399.313 509.788, 385.392 505, 375.398 505 C 367.110 505, 353.846 506.887, 352.128 508.310 C 351.374 508.935, 349.317 512.406, 347.556 516.024 C 340.151 531.239, 319.844 558.885, 306.087 572.479 C 295.357 583.081, 294.786 585.024, 300.750 590.621 C 302.813 592.556, 309.900 597.749, 316.500 602.161 C 340.204 618.007, 367.766 629.160, 400.500 636.151 C 410.272 638.238, 414.124 638.500, 435 638.500 C 457.121 638.500, 459.263 638.333, 471.500 635.652 C 532.643 622.259, 579.387 590.656, 615.284 538.440 C 630.666 516.066, 640.193 494.175, 645.448 469.133 C 653.242 431.990, 650.385 392.302, 637.304 356 C 628.462 331.462, 618.941 314.332, 602.581 293.527 C 582.161 267.560, 557.653 247.347, 529.449 233.213 C 496.305 216.603, 471.633 210.141, 439 209.524 C 428.825 209.331, 419.150 209.378, 417.500 209.626 M 370 238.596 C 349.619 245.609, 335.336 253.403, 315.673 268.240 C 302.167 278.432, 293.676 286.608, 283.593 299.131 C 263.674 323.870, 249.864 350.190, 242.736 377 C 237.071 398.309, 236.498 403.107, 236.534 429 C 236.571 456.182, 237.702 464.495, 244.015 484 C 248.258 497.109, 256.308 514.428, 260.520 519.509 L 263 522.500 265.561 519.500 C 277.870 505.082, 286.904 489.368, 292.009 473.500 C 293.779 468, 296.709 459.450, 298.521 454.500 C 300.333 449.550, 302.118 443.890, 302.487 441.922 L 303.158 438.344 294.353 436.614 C 289.510 435.662, 284.106 433.992, 282.344 432.903 C 273.756 427.596, 266.990 415.274, 267.022 405 C 267.046 397.373, 270.220 387.449, 275.036 379.944 C 281.746 369.488, 299.317 356.851, 311.443 353.761 C 315.262 352.788, 318.726 351.443, 319.141 350.772 C 319.556 350.101, 320.397 346.390, 321.011 342.526 C 322.746 331.595, 327.482 315.295, 331.843 305.239 C 340.557 285.149, 351.983 269.752, 372.952 249.844 C 389.189 234.429, 388.602 232.194, 370 238.596 M 540 262.161 C 540 262.821, 542.427 266.993, 545.392 271.431 C 552.884 282.642, 559.384 296.048, 562.695 307.120 C 565.355 316.017, 565.497 317.479, 565.435 335.500 C 565.372 354.015, 565.288 354.765, 562.142 364.865 C 557.073 381.136, 550.820 392.235, 539.843 404.442 C 529.442 416.010, 510.360 427.866, 496.432 431.414 C 464.973 439.430, 427.738 426.566, 408.020 400.870 C 403.692 395.231, 403.500 395.108, 402.382 397.266 C 400.895 400.137, 398.337 412.195, 396.964 422.807 C 396.373 427.376, 395.014 434.535, 393.945 438.717 C 392.875 442.899, 392 446.865, 392 447.532 C 392 448.199, 393.688 449.031, 395.750 449.381 C 399.660 450.045, 401.522 450.799, 424.500 461.018 C 456.082 475.064, 474.771 480.970, 490.012 481.720 C 509.337 482.671, 518.456 478.710, 535.542 461.943 C 549.954 447.800, 552.584 446.553, 568 446.552 C 577.667 446.551, 580.419 446.918, 585.262 448.852 C 592.579 451.774, 599.703 458.646, 603.556 466.500 C 606.253 471.996, 606.500 473.391, 606.500 483.114 C 606.500 493.687, 606.482 493.764, 602.073 502.466 C 594.591 517.229, 576.372 534.852, 557.042 546.022 C 525.192 564.426, 493.423 567.328, 455 555.344 C 442.884 551.565, 424.263 544.265, 407.428 536.695 C 392.081 529.793, 383.927 527.563, 374 527.550 C 369.325 527.544, 364.753 527.980, 363.840 528.519 C 361.742 529.759, 356.490 537.090, 349.899 547.978 C 343.715 558.194, 331.850 575.054, 327.300 580.090 C 325.485 582.099, 324 584.169, 324 584.690 C 324 586.458, 340.448 596.905, 351.182 601.955 C 371.171 611.359, 393.276 617.997, 414.322 620.915 C 424.390 622.311, 451.035 622.313, 460.308 620.918 C 480.785 617.839, 505.114 609.436, 525.834 598.288 C 550.172 585.193, 571.610 566.268, 594.127 538 C 608.731 519.666, 621.563 493.428, 627.011 470.759 C 632.052 449.783, 633.144 417.168, 629.532 395.500 C 622.681 354.403, 602.620 316.401, 570.379 283.446 C 559.778 272.610, 540 258.752, 540 262.161 M 446.101 305.178 C 434.521 306.505, 425.220 312.685, 420.356 322.283 C 416.211 330.463, 417.442 330.893, 426.962 324.589 C 431.616 321.507, 437.916 318.022, 440.962 316.846 C 452.429 312.416, 466.076 314.914, 475.441 323.157 C 477.996 325.406, 480.373 326.960, 480.723 326.611 C 481.529 325.805, 478.649 319.716, 475.528 315.629 C 472.177 311.240, 463.181 306.060, 457.388 305.184 C 454.700 304.777, 449.620 304.775, 446.101 305.178" stroke="none" fill="#0f2537" fill-rule="evenodd"/><path d="M 412.500 177.634 C 401.804 178.744, 377.490 183.482, 367.111 186.478 C 356.476 189.549, 329.826 200.029, 319.692 205.127 C 306.786 211.619, 284.466 227.434, 267.351 242.213 C 259.141 249.302, 245.155 264.254, 239.592 271.889 C 238.441 273.468, 234.825 278.301, 231.555 282.630 C 223.921 292.735, 216.880 304.161, 211.300 315.500 C 208.864 320.450, 206.418 325.332, 205.864 326.350 C 203.666 330.391, 197.653 347.130, 194.406 358.247 C 183.738 394.767, 181.982 442.828, 190.067 476.991 C 193.843 492.946, 208.820 528.485, 217.042 541 C 232.232 564.123, 246.626 582.379, 259.654 595.043 C 284.537 619.233, 306.459 633.756, 343.095 650.321 C 357.386 656.783, 386.070 664.289, 407.500 667.173 C 432.378 670.522, 464.044 668.516, 490.500 661.915 C 526.885 652.837, 559.469 636.544, 590 612.163 C 601.107 603.294, 621.255 583.349, 629.127 573.432 C 645.622 552.650, 664.415 520.226, 670.937 501.294 C 679.452 476.578, 682.468 456.964, 682.361 427 C 682.271 401.936, 680.164 384.896, 674.539 363.745 C 668.253 340.110, 658.348 315.863, 649.786 303.149 L 646.292 297.960 643.648 301.956 C 640.385 306.887, 637.667 308.725, 632.500 309.496 C 624.467 310.695, 616.332 303.286, 617.328 295.678 C 618.155 289.365, 622.119 284.453, 627.950 282.517 C 630.728 281.594, 633 280.278, 633 279.591 C 633 274.149, 599.061 239.097, 582.500 227.434 C 546.933 202.387, 513.241 187.707, 475.695 180.899 C 460.633 178.168, 455.895 177.747, 437.500 177.500 C 425.950 177.345, 414.700 177.405, 412.500 177.634 M 419.191 209.058 C 380.275 212.514, 340.645 228.065, 305 253.869 C 295.580 260.688, 272.436 283.884, 264.315 294.644 C 240.929 325.633, 225.410 361.170, 219.399 397.500 C 217.126 411.240, 217.112 444.585, 219.374 458.998 C 223.640 486.179, 234.384 513.717, 249.710 536.746 C 257.537 548.509, 259.741 551, 262.315 551 C 265.267 551, 281.785 533.800, 288.253 523.991 C 291.339 519.311, 295.892 511.661, 298.371 506.991 C 305.080 494.353, 318.186 463.096, 322.267 450 C 325.915 438.294, 330.647 416.743, 331.160 409.500 C 331.444 405.502, 331.442 405.500, 327.972 405.771 C 326.062 405.920, 319.596 408.560, 313.602 411.637 C 298.808 419.232, 293.031 419.020, 287.956 410.696 C 282.008 400.940, 288.735 387.905, 304.007 379.593 C 308.623 377.081, 323.786 374.020, 331.691 374.006 C 333.446 374.003, 335.112 373.629, 335.392 373.175 C 335.673 372.721, 337.485 363.158, 339.420 351.925 C 345.473 316.783, 355.211 294.522, 372.647 275.960 C 387.746 259.888, 408.938 247.748, 428.500 243.967 C 449.467 239.914, 470.557 241.698, 486.355 248.862 C 513 260.943, 533.686 283.776, 543.103 311.500 C 546.380 321.146, 546.499 322.031, 546.467 336.500 C 546.436 351.028, 546.324 351.815, 542.937 361.500 C 538.682 373.664, 534.016 380.895, 523.972 390.890 C 510.569 404.227, 490.915 413.009, 474.507 412.993 C 467.186 412.986, 453.349 410.181, 446.500 407.316 C 440.728 404.901, 428.816 395.850, 424.791 390.819 C 410.170 372.548, 408.940 350.690, 421.837 338.332 C 427.667 332.746, 434.316 330.646, 444.539 331.162 C 450.906 331.484, 452.340 331.925, 455.612 334.574 C 461.846 339.619, 463.500 342.518, 463.500 348.396 C 463.500 353.535, 462.781 355.103, 456.500 363.656 C 455.808 364.598, 455.961 365.831, 457 367.661 C 459.380 371.858, 463.183 374.061, 469.059 374.650 C 477.383 375.485, 484.720 372.317, 492.512 364.525 C 497.982 359.055, 499.071 357.295, 501.506 349.982 C 507.381 332.342, 503.499 315.214, 490.427 301.095 C 463.023 271.495, 421.959 279.291, 400.067 318.250 C 392.274 332.119, 387.235 352.529, 379.516 401.500 C 375.572 426.522, 371.135 447.314, 367.388 458.330 C 366.074 462.191, 365 465.422, 365 465.509 C 365 465.596, 370.512 465.629, 377.250 465.583 C 392.077 465.482, 394.320 466.177, 420.673 479.042 C 443.366 490.120, 459.005 495.999, 474.759 499.374 C 490.968 502.846, 498.721 502.773, 513.643 499.009 C 531.269 494.562, 540.898 488.869, 549.473 477.827 C 556.160 469.216, 560.825 466.500, 568.927 466.500 C 574.546 466.500, 576.127 466.925, 579.822 469.430 C 585.255 473.114, 588 478.340, 588 485 C 588 491.797, 585.866 495.642, 575.875 506.842 C 565.940 517.979, 557.661 524.397, 545.500 530.386 C 527.667 539.168, 510.613 542.702, 490.764 541.727 C 466.895 540.555, 446.947 534.001, 415 516.833 C 405.232 511.584, 394.191 507.546, 382.719 505.027 C 377.468 503.874, 356.049 505.368, 352.785 507.115 C 351.793 507.646, 349.126 511.771, 346.858 516.282 C 338.605 532.697, 319.656 558.393, 305.750 572.027 C 298.801 578.840, 296 582.273, 296 583.977 C 296 589.528, 319.296 606.561, 340.687 616.651 C 393.513 641.569, 439.456 646.079, 490.712 631.381 C 517.890 623.587, 544.833 609.693, 567 592.041 C 576.456 584.511, 594.044 566.877, 602.449 556.500 C 626.780 526.458, 639.812 499.905, 646.622 466.500 C 649.317 453.280, 649.476 451.080, 649.488 427 C 649.499 402.905, 649.345 400.756, 646.693 388 C 636.674 339.806, 617.368 304.782, 581.328 269.412 C 565.146 253.531, 549.742 242.792, 526.394 231.112 C 491.145 213.479, 454.440 205.928, 419.191 209.058" stroke="none" fill="#fdfef5" fill-rule="evenodd"/><path d="M 405.754 161.972 C 402.043 162.350, 398.694 162.972, 398.312 163.355 C 397.930 163.737, 400.966 163.701, 405.059 163.275 C 409.151 162.849, 423.075 162.535, 436 162.577 C 454.952 162.639, 462.192 163.077, 473.408 164.836 C 481.057 166.036, 487.491 166.843, 487.705 166.629 C 488.594 165.740, 476.074 163.652, 460 162.010 C 450.087 160.998, 415.549 160.973, 405.754 161.972 M 382.500 165.621 C 361.343 170.827, 345.775 175.686, 336.261 180.054 C 333.929 181.124, 331.747 182, 331.412 182 C 330.148 182, 308.520 192.379, 306.500 193.955 C 305.950 194.384, 302.800 196.215, 299.500 198.024 C 296.200 199.834, 292.076 202.256, 290.334 203.407 C 262.471 221.831, 245.950 236.630, 226.040 261 C 220.592 267.668, 205 290.227, 205 291.441 C 205 291.700, 203.910 293.518, 202.577 295.481 C 195.363 306.112, 182.536 336.167, 176.534 356.500 C 172.167 371.297, 171.983 372.137, 167.911 396 C 167.106 400.718, 166.638 412.588, 166.648 428 C 166.666 452.975, 167.919 466.554, 171.547 481.075 C 172.429 484.609, 173.490 489.075, 173.904 491 C 176.227 501.813, 183.910 522.432, 191.789 539 C 197.634 551.290, 214.078 578.715, 216.972 581 C 217.321 581.275, 218.700 583.300, 220.037 585.500 C 225.967 595.258, 254.821 625.437, 266.500 634.098 C 270.497 637.062, 268.532 635.135, 254.092 621.931 C 221.435 592.072, 193.995 549.151, 179.656 505.500 C 175.263 492.126, 171.521 476.568, 169.795 464.500 C 168.035 452.188, 168.075 407.320, 169.857 395.500 C 178.710 336.774, 202.485 287.638, 243.659 242.974 C 257.517 227.942, 288.864 204.671, 310.500 193.354 C 335.483 180.286, 365.734 169.742, 391.500 165.120 C 396.462 164.231, 396.469 164.223, 392.500 164.184 C 390.300 164.162, 385.800 164.809, 382.500 165.621 M 499 169.972 C 525.300 177.040, 558.138 191.780, 579.750 206.218 C 583.737 208.881, 587 210.697, 587 210.253 C 587 208.887, 563.131 194.451, 551.500 188.782 C 541.113 183.720, 537.775 182.304, 522 176.272 C 509.799 171.607, 494.007 167.008, 490.500 167.099 C 489.400 167.127, 493.225 168.420, 499 169.972 M 432.776 208.733 C 435.128 208.945, 438.728 208.942, 440.776 208.727 C 442.824 208.512, 440.900 208.339, 436.500 208.343 C 432.100 208.346, 430.424 208.522, 432.776 208.733 M 588 211.378 C 588 211.586, 592.388 215.018, 597.750 219.004 C 629.749 242.789, 666.228 291.915, 681.344 331.579 C 686.446 344.966, 691.865 363.704, 695.058 379 C 696.607 386.425, 697.904 391.420, 697.938 390.100 C 698.005 387.522, 695.538 373.744, 693.981 368 C 686.891 341.842, 682.030 328.098, 674.352 312.500 C 671.374 306.450, 668.389 300.616, 667.719 299.536 C 667.048 298.455, 664.720 294.630, 662.545 291.036 C 660.370 287.441, 658.345 284.275, 658.045 284 C 657.745 283.725, 655.503 280.575, 653.062 277 C 637.887 254.773, 614.179 229.073, 599.559 219 C 597.564 217.625, 594.484 215.270, 592.715 213.766 C 589.799 211.286, 588 210.375, 588 211.378 M 370 238.596 C 349.619 245.609, 335.336 253.403, 315.673 268.240 C 302.167 278.432, 293.676 286.608, 283.593 299.131 C 263.674 323.870, 249.864 350.190, 242.736 377 C 237.071 398.309, 236.498 403.107, 236.534 429 C 236.571 456.182, 237.702 464.495, 244.015 484 C 248.258 497.109, 256.308 514.428, 260.520 519.509 L 263 522.500 265.561 519.500 C 277.870 505.082, 286.904 489.368, 292.009 473.500 C 293.779 468, 296.709 459.450, 298.521 454.500 C 300.333 449.550, 302.118 443.890, 302.487 441.922 L 303.158 438.344 294.353 436.614 C 289.510 435.662, 284.106 433.992, 282.344 432.903 C 273.756 427.596, 266.990 415.274, 267.022 405 C 267.046 397.373, 270.220 387.449, 275.036 379.944 C 281.746 369.488, 299.317 356.851, 311.443 353.761 C 315.262 352.788, 318.726 351.443, 319.141 350.772 C 319.556 350.101, 320.397 346.390, 321.011 342.526 C 322.746 331.595, 327.482 315.295, 331.843 305.239 C 340.557 285.149, 351.983 269.752, 372.952 249.844 C 389.189 234.429, 388.602 232.194, 370 238.596 M 610.500 252 C 615.979 257.500, 620.687 262, 620.962 262 C 621.237 262, 616.979 257.500, 611.500 252 C 606.021 246.500, 601.313 242, 601.038 242 C 600.763 242, 605.021 246.500, 610.500 252 M 540 262.161 C 540 262.821, 542.427 266.993, 545.392 271.431 C 552.884 282.642, 559.384 296.048, 562.695 307.120 C 565.355 316.017, 565.497 317.479, 565.435 335.500 C 565.372 354.015, 565.288 354.765, 562.142 364.865 C 557.073 381.136, 550.820 392.235, 539.843 404.442 C 529.442 416.010, 510.360 427.866, 496.432 431.414 C 464.973 439.430, 427.738 426.566, 408.020 400.870 C 403.692 395.231, 403.500 395.108, 402.382 397.266 C 400.895 400.137, 398.337 412.195, 396.964 422.807 C 396.373 427.376, 395.014 434.535, 393.945 438.717 C 392.875 442.899, 392 446.865, 392 447.532 C 392 448.199, 393.688 449.031, 395.750 449.381 C 399.660 450.045, 401.522 450.799, 424.500 461.018 C 456.082 475.064, 474.771 480.970, 490.012 481.720 C 509.337 482.671, 518.456 478.710, 535.542 461.943 C 549.954 447.800, 552.584 446.553, 568 446.552 C 577.667 446.551, 580.419 446.918, 585.262 448.852 C 592.579 451.774, 599.703 458.646, 603.556 466.500 C 606.253 471.996, 606.500 473.391, 606.500 483.114 C 606.500 493.687, 606.482 493.764, 602.073 502.466 C 594.591 517.229, 576.372 534.852, 557.042 546.022 C 525.192 564.426, 493.423 567.328, 455 555.344 C 442.884 551.565, 424.263 544.265, 407.428 536.695 C 392.081 529.793, 383.927 527.563, 374 527.550 C 369.325 527.544, 364.753 527.980, 363.840 528.519 C 361.742 529.759, 356.490 537.090, 349.899 547.978 C 343.715 558.194, 331.850 575.054, 327.300 580.090 C 325.485 582.099, 324 584.169, 324 584.690 C 324 586.458, 340.448 596.905, 351.182 601.955 C 371.171 611.359, 393.276 617.997, 414.322 620.915 C 424.390 622.311, 451.035 622.313, 460.308 620.918 C 480.785 617.839, 505.114 609.436, 525.834 598.288 C 550.172 585.193, 571.610 566.268, 594.127 538 C 608.731 519.666, 621.563 493.428, 627.011 470.759 C 632.052 449.783, 633.144 417.168, 629.532 395.500 C 622.681 354.403, 602.620 316.401, 570.379 283.446 C 559.778 272.610, 540 258.752, 540 262.161 M 582.500 271 C 585.209 273.750, 587.650 276, 587.925 276 C 588.200 276, 586.209 273.750, 583.500 271 C 580.791 268.250, 578.350 266, 578.075 266 C 577.800 266, 579.791 268.250, 582.500 271 M 374.966 272.750 L 369.500 278.500 375.250 273.034 C 380.592 267.956, 381.458 267, 380.716 267 C 380.560 267, 377.972 269.587, 374.966 272.750 M 278.971 277.750 L 272.500 284.500 279.250 278.029 C 282.962 274.470, 286 271.432, 286 271.279 C 286 270.543, 284.982 271.480, 278.971 277.750 M 448.728 283.722 C 450.503 283.943, 453.653 283.946, 455.728 283.730 C 457.802 283.513, 456.350 283.333, 452.500 283.328 C 448.650 283.324, 446.952 283.501, 448.728 283.722 M 413 300.500 C 410.571 302.975, 408.809 305, 409.084 305 C 409.359 305, 411.571 302.975, 414 300.500 C 416.429 298.025, 418.191 296, 417.916 296 C 417.641 296, 415.429 298.025, 413 300.500 M 446.101 305.178 C 434.521 306.505, 425.220 312.685, 420.356 322.283 C 416.211 330.463, 417.442 330.893, 426.962 324.589 C 431.616 321.507, 437.916 318.022, 440.962 316.846 C 452.429 312.416, 466.076 314.914, 475.441 323.157 C 477.996 325.406, 480.373 326.960, 480.723 326.611 C 481.529 325.805, 478.649 319.716, 475.528 315.629 C 472.177 311.240, 463.181 306.060, 457.388 305.184 C 454.700 304.777, 449.620 304.775, 446.101 305.178 M 433.500 330.929 C 432.392 331.366, 435.067 331.523, 439.500 331.281 C 449.895 330.714, 451.364 330.160, 442.500 330.149 C 438.650 330.144, 434.600 330.495, 433.500 330.929 M 453.500 332.630 C 454.050 333.112, 456.299 335.079, 458.498 337.003 L 462.496 340.500 459.498 337.164 C 457.849 335.329, 455.600 333.362, 454.500 332.792 C 453.400 332.222, 452.950 332.149, 453.500 332.630 M 469.264 374.718 C 470.784 374.947, 473.034 374.941, 474.264 374.704 C 475.494 374.467, 474.250 374.279, 471.500 374.286 C 468.750 374.294, 467.744 374.488, 469.264 374.718 M 532.398 381.750 C 518.619 399.949, 494.412 413.013, 474.507 412.993 C 467.184 412.986, 453.346 410.180, 446.500 407.315 C 442.289 405.552, 433.935 399.838, 427.928 394.609 C 425.963 392.899, 427.396 394.425, 431.112 398 C 441.022 407.533, 451.324 412.485, 465.181 414.374 C 481.052 416.538, 491.268 414.865, 505.500 407.773 C 516.848 402.117, 528.108 391.687, 534.307 381.089 C 536.767 376.881, 535.842 377.202, 532.398 381.750 M 698.734 401 C 699.031 405.675, 699.438 409.688, 699.637 409.917 C 700.322 410.703, 699.764 398.501, 698.978 395.500 C 698.526 393.774, 698.422 396.110, 698.734 401 M 649.320 412 C 649.320 415.575, 649.502 417.038, 649.723 415.250 C 649.945 413.462, 649.945 410.538, 649.723 408.750 C 649.502 406.962, 649.320 408.425, 649.320 412 M 184.370 427 C 184.370 432.775, 184.535 435.137, 184.737 432.250 C 184.939 429.363, 184.939 424.637, 184.737 421.750 C 184.535 418.863, 184.370 421.225, 184.370 427 M 700.365 427.500 C 700.368 433, 700.536 435.122, 700.738 432.216 C 700.941 429.311, 700.939 424.811, 700.734 422.216 C 700.528 419.622, 700.363 422, 700.365 427.500 M 217.355 428.500 C 217.352 433.450, 217.521 435.601, 217.731 433.280 C 217.940 430.959, 217.943 426.909, 217.736 424.280 C 217.530 421.651, 217.358 423.550, 217.355 428.500 M 649.300 443 C 649.300 446.025, 649.487 447.262, 649.716 445.750 C 649.945 444.238, 649.945 441.762, 649.716 440.250 C 649.487 438.738, 649.300 439.975, 649.300 443 M 699.185 449 C 699.071 452.575, 698.765 457.300, 698.504 459.500 L 698.031 463.500 699.054 459.500 C 699.616 457.300, 699.922 452.575, 699.734 449 L 699.392 442.500 699.185 449 M 377.250 464.716 C 378.762 464.945, 381.238 464.945, 382.750 464.716 C 384.262 464.487, 383.025 464.300, 380 464.300 C 376.975 464.300, 375.738 464.487, 377.250 464.716 M 695.653 474.143 C 694.676 479.289, 693.651 484.625, 693.375 486 C 693.011 487.815, 693.128 488.089, 693.801 487 C 694.989 485.077, 698.345 467.534, 697.823 465.970 C 697.606 465.319, 696.630 468.997, 695.653 474.143 M 189.624 479.500 C 189.922 482.250, 191.264 488.648, 192.606 493.719 C 202.584 531.421, 222.041 566.217, 250.685 597.586 C 275.451 624.708, 312.625 649.792, 347.733 663.070 C 359.978 667.701, 384.813 674.621, 396.087 676.543 C 427.187 681.847, 465.283 680.267, 494 672.484 C 533.343 661.820, 566.434 643.874, 600.138 614.921 C 615.815 601.455, 623.438 592.630, 640.239 568.500 C 654.378 548.192, 664.077 527.689, 672.373 500.572 C 677.134 485.006, 676.935 483.394, 672.055 498 C 664.970 519.200, 646.725 551.261, 629.127 573.432 C 621.255 583.349, 601.107 603.294, 590 612.163 C 559.469 636.544, 526.885 652.837, 490.500 661.915 C 464.044 668.516, 432.378 670.522, 407.500 667.173 C 386.070 664.289, 357.386 656.783, 343.095 650.321 C 306.459 633.756, 284.537 619.233, 259.654 595.043 C 246.626 582.379, 232.232 564.123, 217.042 541 C 209.880 530.099, 195.490 497.032, 190.931 481 L 189.082 474.500 189.624 479.500 M 692.111 490.500 C 691.925 493.599, 684.616 515.380, 680.032 526.500 C 674.862 539.041, 674.499 540.089, 676.400 537 C 680.739 529.945, 693.493 493.304, 692.683 490.219 C 692.313 488.807, 692.210 488.858, 692.111 490.500 M 403.083 511.380 C 404.103 512.309, 414 516.982, 414 516.534 C 414 515.970, 404.450 511, 403.367 511 C 402.982 511, 402.854 511.171, 403.083 511.380 M 415 517.466 C 415 517.741, 417.250 519.106, 420 520.500 C 422.750 521.894, 425 522.809, 425 522.534 C 425 522.259, 422.750 520.894, 420 519.500 C 417.250 518.106, 415 517.191, 415 517.466 M 493.768 542.725 C 495.565 542.947, 498.265 542.943, 499.768 542.715 C 501.271 542.486, 499.800 542.304, 496.500 542.310 C 493.200 542.315, 491.971 542.502, 493.768 542.725 M 668.090 551.982 C 666.326 555.292, 665.100 558, 665.366 558 C 666.031 558, 672.077 546.744, 671.645 546.312 C 671.454 546.121, 669.854 548.672, 668.090 551.982 M 655.946 572.250 C 654.172 575.138, 650.732 580.087, 648.302 583.250 C 645.872 586.413, 644.247 588.981, 644.692 588.957 C 646.071 588.883, 660.972 567, 659.642 567 C 659.383 567, 657.720 569.362, 655.946 572.250 M 300.122 577.375 C 296.890 580.669, 295.939 582.338, 296.278 584.125 L 296.728 586.500 296.864 584.038 C 296.942 582.618, 298.781 579.761, 301.208 577.288 C 303.523 574.930, 305.191 573, 304.916 573 C 304.641 573, 302.484 574.969, 300.122 577.375 M 576.966 582.750 L 571.500 588.500 577.250 583.034 C 582.592 577.956, 583.458 577, 582.716 577 C 582.560 577, 579.972 579.587, 576.966 582.750 M 620.519 616.355 C 612.280 624.685, 607.330 630.070, 609.519 628.322 C 614.545 624.310, 637.411 600.752, 635.937 601.105 C 635.697 601.162, 628.759 608.025, 620.519 616.355 M 429.250 639.739 C 432.413 639.937, 437.587 639.937, 440.750 639.739 C 443.913 639.541, 441.325 639.378, 435 639.378 C 428.675 639.378, 426.087 639.541, 429.250 639.739 M 573 654.082 C 568.875 656.785, 565.871 658.998, 566.325 658.999 C 567.387 659, 581 650.208, 581 649.520 C 581 648.807, 581.369 648.596, 573 654.082 M 554.750 664.566 C 552.138 665.926, 550 667.262, 550 667.536 C 550 667.810, 552.250 666.894, 555 665.500 C 557.750 664.106, 560 662.749, 560 662.483 C 560 661.822, 560.090 661.786, 554.750 664.566" stroke="none" fill="#65bee2" fill-rule="evenodd"/></svg>